<?xml version="1.0" encoding="UTF-8" standalone="no"?><!-- Generator: Gravit.io --><svg xmlns="http://www.w3.org/2000/svg" xmlns:xlink="http://www.w3.org/1999/xlink" style="isolation:isolate" viewBox="0 0 16 16" width="16pt" height="16pt"><defs><clipPath id="_clipPath_G2gU2afUh9jJWTaaDzkioZP122yiSqBx"><rect width="16" height="16"/></clipPath></defs><g clip-path="url(#_clipPath_G2gU2afUh9jJWTaaDzkioZP122yiSqBx)"><path d=" M 8 15.5 C 12.142 15.5 15.5 12.142 15.5 8 C 15.5 3.858 12.142 0.5 8 0.5 C 3.858 0.5 0.5 3.858 0.5 8 C 0.5 12.142 3.858 15.5 8 15.5 Z  M 8.312 8.625 C 9.751 8.625 10.917 7.459 10.917 6.021 C 10.917 4.583 9.751 3.417 8.312 3.417 C 6.874 3.417 5.708 4.583 5.708 6.021 C 5.708 7.459 6.874 8.625 8.312 8.625 Z  M 8.312 6.75 C 8.83 6.75 9.25 6.424 9.25 6.021 C 9.25 5.618 8.83 5.292 8.312 5.292 C 7.795 5.292 7.375 5.618 7.375 6.021 C 7.375 6.424 7.795 6.75 8.312 6.75 Z  M 12.583 10.187 C 12.583 10.922 10.632 12.375 8.466 12.375 C 6.3 12.375 4.25 11.018 4.25 10.282 C 4.25 9.546 6.3 9.711 8.466 9.711 C 10.632 9.711 12.583 9.451 12.583 10.187 Z " fill-rule="evenodd" fill="rgb(0,0,0)"/></g></svg>